<?xml version="1.0" standalone="no"?>
<!DOCTYPE svg PUBLIC "-//W3C//DTD SVG 20010904//EN"
 "http://www.w3.org/TR/2001/REC-SVG-20010904/DTD/svg10.dtd">
<svg version="1.0" xmlns="http://www.w3.org/2000/svg"
 width="512.000000pt" height="512.000000pt" viewBox="0 0 512.000000 512.000000"
 preserveAspectRatio="xMidYMid meet">

<g transform="translate(0.000000,512.000000) scale(0.100000,-0.100000)"
fill="#000000" stroke="none">
<path d="M2982 3820 c-96 -26 -184 -73 -244 -132 -27 -27 -51 -48 -54 -48 -2
0 -21 11 -42 25 -52 35 -147 65 -202 65 -26 0 -65 7 -86 16 -82 35 -258 -1
-338 -69 l-38 -33 122 -83 c68 -46 146 -101 174 -122 31 -24 58 -37 71 -34
148 29 142 26 154 67 14 46 62 103 105 125 21 11 76 19 171 24 153 9 223 23
330 64 63 24 75 25 126 16 135 -23 218 -95 291 -251 24 -50 31 -83 35 -145 7
-139 12 -145 84 -99 66 41 118 55 207 56 45 1 82 4 82 7 0 3 -7 28 -15 54 -36
118 -127 244 -214 295 -40 24 -55 27 -121 25 -41 -2 -86 -4 -99 -5 -20 -3 -27
3 -35 30 -15 52 -89 127 -144 147 -74 27 -231 29 -320 5z"/>
<path d="M1130 3341 c-53 -17 -167 -81 -206 -114 -22 -20 -56 -64 -74 -99 -32
-59 -34 -70 -38 -180 -3 -81 -1 -118 6 -118 24 0 120 41 153 65 l34 26 7 -45
c3 -25 24 -74 46 -111 l39 -66 28 38 c42 56 227 236 261 253 70 35 135 84 132
99 -5 27 -114 73 -185 79 l-65 5 5 45 c3 24 14 57 26 73 l22 29 -28 11 c-37
15 -132 20 -163 10z"/>
<path d="M4070 3083 c-66 -12 -220 -76 -220 -91 0 -4 19 -20 41 -37 58 -42
116 -113 192 -232 86 -136 159 -328 186 -488 20 -121 31 -205 31 -240 l0 -36
121 93 c137 105 204 174 243 253 23 44 29 72 33 154 7 127 -8 172 -86 255 -72
75 -112 94 -224 109 l-92 13 -6 70 c-6 84 -29 123 -92 153 -48 23 -90 31 -127
24z"/>
<path d="M3345 2974 c11 -9 43 -29 72 -45 28 -17 57 -37 63 -44 17 -20 30 -19
30 4 0 28 -122 102 -169 101 -13 -1 -13 -3 4 -16z"/>
<path d="M1901 2969 c-29 -5 -73 -18 -98 -29 -86 -38 -173 -128 -153 -160 6
-10 19 -6 62 22 125 82 262 96 508 54 164 -27 230 -19 230 28 0 39 -39 56
-127 56 -43 0 -112 6 -153 14 -107 21 -207 26 -269 15z"/>
<path d="M3040 2965 c-140 -24 -222 -34 -277 -35 -28 0 -55 -5 -59 -12 -4 -6
8 -26 31 -46 l38 -35 91 7 c50 4 118 11 151 16 33 5 106 13 162 16 124 8 166
-2 264 -62 39 -24 73 -44 75 -44 12 0 1 41 -17 64 -27 34 -121 97 -178 120
-60 23 -180 28 -281 11z"/>
<path d="M1690 2919 c-40 -24 -90 -69 -90 -81 0 -15 25 -8 50 15 14 12 40 33
58 45 30 22 42 42 25 42 -5 0 -24 -10 -43 -21z"/>
<path d="M2836 2792 c-3 -5 1 -13 10 -16 27 -10 362 -7 369 4 4 6 -32 10 -102
10 -59 0 -144 3 -189 6 -52 4 -83 3 -88 -4z"/>
<path d="M1955 2780 c4 -6 78 -10 190 -10 112 0 186 4 190 10 4 7 -62 10 -190
10 -128 0 -194 -3 -190 -10z"/>
<path d="M2367 2754 c-10 -10 -9 -48 2 -59 6 -6 11 -32 13 -60 l3 -50 19 27
c26 39 24 95 -6 125 -13 13 -27 20 -31 17z"/>
<path d="M2764 2735 c-28 -28 -30 -49 -9 -99 20 -48 34 -46 28 3 -4 30 0 48
16 74 19 30 19 36 6 41 -10 3 -26 -4 -41 -19z"/>
<path d="M2963 2729 c-46 -4 -87 -10 -93 -14 -16 -10 -11 -25 8 -25 30 0 31
-9 9 -50 -42 -76 7 -51 69 35 27 38 44 25 44 -34 l0 -48 -59 -6 c-33 -3 -67
-10 -78 -16 -13 -8 42 -10 207 -11 236 0 241 1 287 46 7 7 23 10 35 7 33 -7
-74 93 -119 112 -39 16 -168 18 -310 4z m347 -60 c27 -17 50 -33 50 -35 0 -12
-73 -34 -110 -34 l-40 0 0 50 c0 47 2 50 25 50 14 0 47 -14 75 -31z m-132 -7
c2 -7 -3 -12 -12 -12 -9 0 -16 7 -16 16 0 17 22 14 28 -4z"/>
<path d="M1894 2721 c-29 -13 -142 -120 -127 -121 6 0 24 11 40 23 40 34 117
77 136 77 13 0 17 -10 17 -45 0 -25 -1 -48 -2 -52 -4 -10 -75 -9 -110 1 -39
11 -36 -9 5 -34 29 -18 50 -20 244 -20 116 0 214 4 217 9 8 13 -11 18 -79 20
-33 1 -60 3 -61 4 -1 1 1 26 3 55 6 59 24 68 47 25 17 -34 64 -79 72 -70 4 3
-3 24 -15 47 l-21 40 30 0 c37 0 39 13 4 28 -32 15 -371 26 -400 13z m226 -56
c0 -8 -4 -15 -10 -15 -5 0 -10 7 -10 15 0 8 5 15 10 15 6 0 10 -7 10 -15z"/>
<path d="M795 2516 c-114 -29 -180 -72 -219 -139 -31 -55 -38 -95 -26 -159 23
-121 100 -225 210 -282 l70 -37 0 31 c0 48 28 225 56 349 26 115 46 171 73
204 11 13 12 20 3 29 -17 17 -110 19 -167 4z"/>
<path d="M3413 2215 c-70 -85 -150 -282 -172 -427 -7 -40 -14 -83 -17 -95 -3
-15 0 -23 9 -23 8 0 19 31 30 83 31 151 92 317 157 423 22 36 40 68 40 70 0
14 -23 -1 -47 -31z"/>
<path d="M3103 1996 c-31 -35 -111 -81 -168 -98 -139 -41 -293 -58 -572 -65
-229 -5 -253 -4 -259 11 -8 20 -43 21 -50 1 -8 -19 38 -112 51 -105 5 3 8 15
6 28 l-2 22 108 -6 c131 -7 435 9 557 31 180 32 313 92 361 163 22 32 25 52 7
52 -4 0 -21 -15 -39 -34z"/>
</g>
</svg>
